<?xml version="1.0" standalone="no"?>
<!DOCTYPE svg PUBLIC "-//W3C//DTD SVG 20010904//EN"
 "http://www.w3.org/TR/2001/REC-SVG-20010904/DTD/svg10.dtd">
<svg version="1.0" xmlns="http://www.w3.org/2000/svg"
 width="269.000000pt" height="260.000000pt" viewBox="0 0 269.000000 260.000000"
 preserveAspectRatio="xMidYMid meet">

<g transform="translate(0.000000,260.000000) scale(0.100000,-0.100000)"
fill="#000000" stroke="none">
<path d="M108 2582 l-88 -3 0 -1279 0 -1280 1325 0 1325 0 0 1280 0 1280 -32
0 c-320 3 -2467 4 -2530 2z m2507 -1282 l0 -1225 -1270 0 -1270 0 -3 1215 c-1
668 0 1221 3 1228 3 10 263 12 1272 10 l1268 -3 0 -1225z"/>
<path d="M320 1620 l0 -660 375 0 c206 0 375 4 375 8 0 4 -19 27 -43 50 l-42
42 -280 2 -280 3 -3 553 -2 552 279 0 280 0 43 46 c24 25 45 50 46 55 2 5
-147 9 -372 9 l-376 0 0 -660z"/>
<path d="M440 1900 l0 -260 218 0 218 0 49 50 49 50 -217 0 -217 0 0 155 0
155 272 0 272 0 -54 55 -54 55 -268 0 -268 0 0 -260z"/>
<path d="M440 1355 l0 -275 273 0 273 0 49 50 49 50 -272 0 -272 0 0 170 0
170 215 0 c118 0 215 4 215 8 0 4 -22 29 -48 55 l-48 47 -217 0 -217 0 0 -275z"/>
<path d="M1290 962 c0 -359 4 -652 8 -652 4 0 29 21 55 48 l47 47 2 439 3 439
224 -317 223 -317 137 193 c75 106 177 251 226 321 l90 128 3 -444 2 -443 50
-49 50 -49 0 654 0 655 -32 -46 c-18 -25 -143 -202 -278 -392 -187 -264 -248
-343 -256 -334 -7 7 -128 176 -269 377 -141 201 -263 372 -271 379 -12 13 -14
-79 -14 -637z"/>
<path d="M1410 823 l0 -419 50 -49 50 -49 2 310 3 309 152 -216 c84 -118 160
-226 170 -238 l18 -22 165 234 165 234 3 -303 c1 -167 6 -304 10 -304 4 0 27
19 50 43 l42 43 -2 419 -3 419 -214 -302 c-118 -166 -217 -302 -220 -301 -3 0
-100 135 -216 300 -115 165 -213 303 -217 305 -5 3 -8 -183 -8 -413z"/>
</g>
</svg>
